<mxfile host="app.diagrams.net" modified="2023-03-28T11:11:02.363Z" agent="5.0 (Macintosh; Intel Mac OS X 10_15_7) AppleWebKit/537.36 (KHTML, like Gecko) Chrome/110.0.0.0 Safari/537.36" etag="kBTj_nrjhbPih1Bw1wki" version="20.8.5" type="github">
  <diagram id="xjxomUsJOC9vYhl664Ct" name="Page-1">
    <mxGraphModel dx="2092" dy="796" grid="1" gridSize="10" guides="1" tooltips="1" connect="1" arrows="1" fold="1" page="1" pageScale="1" pageWidth="850" pageHeight="1100" math="0" shadow="0">
      <root>
        <mxCell id="0" />
        <mxCell id="1" parent="0" />
        <object label="" id="XgzPaaZ0s7mawGbcmJ4S-1">
          <mxCell style="rounded=1;whiteSpace=wrap;html=1;fontSize=16;labelBackgroundColor=none;glass=0;sketch=0;shadow=0;gradientDirection=east;fillStyle=auto;fillOpacity=100;imageWidth=24;arcSize=12;absoluteArcSize=0;overflow=visible;noLabel=0;resizeWidth=0;strokeOpacity=100;direction=east;portConstraintRotation=0;fixDash=0;dropTarget=0;metaEdit=0;backgroundOutline=0;autosize=0;imageAspect=1;fillColor=#d5e8d4;strokeWidth=1;strokeColor=none;" parent="1" vertex="1">
            <mxGeometry x="120" y="860" width="70" height="60" as="geometry" />
          </mxCell>
        </object>
        <mxCell id="xy5AybyZS4DWEqt7mpqy-16" value="&lt;font style=&quot;font-size: 15px;&quot;&gt;Testing&lt;/font&gt;" style="rounded=1;whiteSpace=wrap;html=1;fontSize=18;fillColor=none;" parent="1" vertex="1">
          <mxGeometry x="120" y="860" width="140" height="60" as="geometry" />
        </mxCell>
        <object label="" id="xy5AybyZS4DWEqt7mpqy-22">
          <mxCell style="rounded=1;whiteSpace=wrap;html=1;fontSize=16;labelBackgroundColor=none;glass=0;sketch=0;shadow=0;gradientDirection=east;fillStyle=auto;fillOpacity=100;imageWidth=24;arcSize=12;absoluteArcSize=0;overflow=visible;noLabel=0;resizeWidth=0;strokeOpacity=100;direction=east;portConstraintRotation=0;fixDash=0;dropTarget=0;metaEdit=0;backgroundOutline=0;autosize=0;imageAspect=1;fillColor=#d5e8d4;strokeWidth=1;strokeColor=none;" parent="1" vertex="1">
            <mxGeometry x="-80" y="710" width="120" height="60" as="geometry" />
          </mxCell>
        </object>
        <mxCell id="xy5AybyZS4DWEqt7mpqy-14" value="&lt;font style=&quot;font-size: 15px;&quot;&gt;KZG ceremony&lt;/font&gt;" style="rounded=1;whiteSpace=wrap;html=1;fontSize=18;fillColor=none;" parent="1" vertex="1">
          <mxGeometry x="-80" y="710" width="130" height="60" as="geometry" />
        </mxCell>
        <object label="" id="xy5AybyZS4DWEqt7mpqy-18">
          <mxCell style="rounded=1;whiteSpace=wrap;html=1;fontSize=16;labelBackgroundColor=none;glass=0;sketch=0;shadow=0;gradientDirection=east;fillStyle=auto;fillOpacity=100;imageWidth=24;arcSize=12;absoluteArcSize=0;overflow=visible;noLabel=0;resizeWidth=0;strokeOpacity=100;direction=east;portConstraintRotation=0;fixDash=0;dropTarget=0;metaEdit=0;backgroundOutline=0;autosize=0;imageAspect=1;fillColor=#d5e8d4;strokeWidth=1;strokeColor=none;" parent="1" vertex="1">
            <mxGeometry x="100" y="510" width="130" height="60" as="geometry" />
          </mxCell>
        </object>
        <mxCell id="xy5AybyZS4DWEqt7mpqy-10" value="&lt;font style=&quot;font-size: 15px;&quot;&gt;Consensus Spec&lt;/font&gt;" style="rounded=1;whiteSpace=wrap;html=1;fontSize=18;fillColor=none;" parent="1" vertex="1">
          <mxGeometry x="100" y="510" width="130" height="60" as="geometry" />
        </mxCell>
        <object label="" id="xy5AybyZS4DWEqt7mpqy-20">
          <mxCell style="rounded=1;whiteSpace=wrap;html=1;fontSize=16;labelBackgroundColor=none;glass=0;sketch=0;shadow=0;gradientDirection=east;fillStyle=auto;fillOpacity=100;imageWidth=24;arcSize=12;absoluteArcSize=0;overflow=visible;noLabel=0;resizeWidth=0;strokeOpacity=100;direction=east;portConstraintRotation=0;fixDash=0;dropTarget=0;metaEdit=0;backgroundOutline=0;autosize=0;imageAspect=1;fillColor=#d5e8d4;strokeWidth=1;strokeColor=none;" parent="1" vertex="1">
            <mxGeometry x="100" y="610" width="130" height="60" as="geometry" />
          </mxCell>
        </object>
        <mxCell id="xy5AybyZS4DWEqt7mpqy-11" value="&lt;span style=&quot;font-size: 15px;&quot;&gt;Engine-API spec&lt;/span&gt;" style="rounded=1;whiteSpace=wrap;html=1;fontSize=18;fillColor=none;" parent="1" vertex="1">
          <mxGeometry x="100" y="610" width="130" height="60" as="geometry" />
        </mxCell>
        <object label="" id="xy5AybyZS4DWEqt7mpqy-23">
          <mxCell style="rounded=1;whiteSpace=wrap;html=1;fontSize=16;labelBackgroundColor=none;glass=0;sketch=0;shadow=0;gradientDirection=east;fillStyle=auto;fillOpacity=100;imageWidth=24;arcSize=12;absoluteArcSize=0;overflow=visible;noLabel=0;resizeWidth=0;strokeOpacity=100;direction=east;portConstraintRotation=0;fixDash=0;dropTarget=0;metaEdit=0;backgroundOutline=0;autosize=0;imageAspect=1;fillColor=#d5e8d4;strokeWidth=1;strokeColor=none;" parent="1" vertex="1">
            <mxGeometry x="-80" y="860" width="130" height="60" as="geometry" />
          </mxCell>
        </object>
        <mxCell id="xy5AybyZS4DWEqt7mpqy-15" value="&lt;font style=&quot;font-size: 15px;&quot;&gt;Tooling, Devnets&lt;/font&gt;" style="rounded=1;whiteSpace=wrap;html=1;fontSize=18;fillColor=none;" parent="1" vertex="1">
          <mxGeometry x="-80" y="860" width="140" height="60" as="geometry" />
        </mxCell>
        <object label="" id="xy5AybyZS4DWEqt7mpqy-21">
          <mxCell style="rounded=1;whiteSpace=wrap;html=1;fontSize=16;labelBackgroundColor=none;glass=0;sketch=0;shadow=0;gradientDirection=east;fillStyle=auto;fillOpacity=100;imageWidth=24;arcSize=12;absoluteArcSize=0;overflow=visible;noLabel=0;resizeWidth=0;strokeOpacity=100;direction=east;portConstraintRotation=0;fixDash=0;dropTarget=0;metaEdit=0;backgroundOutline=0;autosize=0;imageAspect=1;fillColor=#d5e8d4;strokeWidth=1;strokeColor=none;" parent="1" vertex="1">
            <mxGeometry x="280" y="560" width="98" height="60" as="geometry" />
          </mxCell>
        </object>
        <mxCell id="xy5AybyZS4DWEqt7mpqy-13" value="&lt;font style=&quot;font-size: 15px;&quot;&gt;Client implementation&lt;/font&gt;" style="rounded=1;whiteSpace=wrap;html=1;fontSize=18;fillColor=none;" parent="1" vertex="1">
          <mxGeometry x="280" y="560" width="130" height="60" as="geometry" />
        </mxCell>
        <object label="" id="xy5AybyZS4DWEqt7mpqy-17">
          <mxCell style="rounded=1;whiteSpace=wrap;html=1;fontSize=16;labelBackgroundColor=none;glass=0;sketch=0;shadow=0;gradientDirection=east;fillStyle=auto;fillOpacity=100;imageWidth=24;arcSize=12;absoluteArcSize=0;overflow=visible;noLabel=0;resizeWidth=0;strokeOpacity=100;direction=east;portConstraintRotation=0;fixDash=0;dropTarget=0;metaEdit=0;backgroundOutline=0;autosize=0;imageAspect=1;fillColor=#d5e8d4;strokeWidth=1;strokeColor=none;" parent="1" vertex="1">
            <mxGeometry x="-80" y="560" width="120" height="60" as="geometry" />
          </mxCell>
        </object>
        <mxCell id="xy5AybyZS4DWEqt7mpqy-9" value="&lt;font style=&quot;font-size: 15px;&quot;&gt;EIP itself&lt;/font&gt;" style="rounded=1;whiteSpace=wrap;html=1;fontSize=18;fillColor=none;" parent="1" vertex="1">
          <mxGeometry x="-80" y="560" width="120" height="60" as="geometry" />
        </mxCell>
        <mxCell id="xy5AybyZS4DWEqt7mpqy-1" value="&lt;font style=&quot;font-size: 16px;&quot;&gt;EIP-4844&lt;/font&gt;" style="rounded=1;whiteSpace=wrap;html=1;fillColor=#dae8fc;strokeColor=#6c8ebf;" parent="1" vertex="1">
          <mxGeometry x="-300" y="710" width="120" height="60" as="geometry" />
        </mxCell>
        <mxCell id="xy5AybyZS4DWEqt7mpqy-26" value="" style="edgeStyle=orthogonalEdgeStyle;rounded=1;orthogonalLoop=1;jettySize=auto;html=1;fontSize=20;elbow=vertical;perimeterSpacing=0;strokeOpacity=100;fillOpacity=100;jumpStyle=none;sketch=0;shadow=0;spacingTop=110;spacingLeft=999;labelPosition=center;verticalLabelPosition=middle;align=center;verticalAlign=middle;textDirection=ltr;fontStyle=4;horizontal=0;exitX=1;exitY=0.5;exitDx=0;exitDy=0;entryX=0;entryY=0.5;entryDx=0;entryDy=0;" parent="1" source="xy5AybyZS4DWEqt7mpqy-1" target="xy5AybyZS4DWEqt7mpqy-9" edge="1">
          <mxGeometry relative="1" as="geometry">
            <mxPoint x="-135" y="590" as="targetPoint" />
            <mxPoint x="-200" y="480" as="sourcePoint" />
          </mxGeometry>
        </mxCell>
        <mxCell id="xy5AybyZS4DWEqt7mpqy-27" value="" style="edgeStyle=orthogonalEdgeStyle;rounded=1;orthogonalLoop=1;jettySize=auto;html=1;fontSize=20;elbow=vertical;perimeterSpacing=0;strokeOpacity=100;fillOpacity=100;jumpStyle=none;sketch=0;shadow=0;spacingTop=110;spacingLeft=999;labelPosition=center;verticalLabelPosition=middle;align=center;verticalAlign=middle;textDirection=ltr;fontStyle=4;horizontal=0;exitX=1;exitY=0.5;exitDx=0;exitDy=0;entryX=0;entryY=0.5;entryDx=0;entryDy=0;" parent="1" source="xy5AybyZS4DWEqt7mpqy-1" target="xy5AybyZS4DWEqt7mpqy-15" edge="1">
          <mxGeometry relative="1" as="geometry">
            <mxPoint x="-70" y="600" as="targetPoint" />
            <mxPoint x="-170" y="750" as="sourcePoint" />
          </mxGeometry>
        </mxCell>
        <mxCell id="xy5AybyZS4DWEqt7mpqy-28" value="" style="edgeStyle=orthogonalEdgeStyle;rounded=1;orthogonalLoop=1;jettySize=auto;html=1;fontSize=20;elbow=vertical;perimeterSpacing=0;strokeOpacity=100;fillOpacity=100;jumpStyle=none;sketch=0;shadow=0;spacingTop=110;spacingLeft=999;labelPosition=center;verticalLabelPosition=middle;align=center;verticalAlign=middle;textDirection=ltr;fontStyle=4;horizontal=0;exitX=1;exitY=0.5;exitDx=0;exitDy=0;" parent="1" source="xy5AybyZS4DWEqt7mpqy-1" edge="1">
          <mxGeometry relative="1" as="geometry">
            <mxPoint x="-80" y="740" as="targetPoint" />
            <mxPoint x="-160" y="760" as="sourcePoint" />
          </mxGeometry>
        </mxCell>
        <mxCell id="xy5AybyZS4DWEqt7mpqy-29" value="" style="edgeStyle=orthogonalEdgeStyle;rounded=1;orthogonalLoop=1;jettySize=auto;html=1;fontSize=20;elbow=vertical;perimeterSpacing=0;strokeOpacity=100;fillOpacity=100;jumpStyle=none;sketch=0;shadow=0;spacingTop=110;spacingLeft=999;labelPosition=center;verticalLabelPosition=middle;align=center;verticalAlign=middle;textDirection=ltr;fontStyle=4;horizontal=0;exitX=1;exitY=0.5;exitDx=0;exitDy=0;entryX=0;entryY=0.5;entryDx=0;entryDy=0;" parent="1" source="xy5AybyZS4DWEqt7mpqy-9" target="xy5AybyZS4DWEqt7mpqy-10" edge="1">
          <mxGeometry relative="1" as="geometry">
            <mxPoint x="-70" y="900" as="targetPoint" />
            <mxPoint x="-170" y="750" as="sourcePoint" />
          </mxGeometry>
        </mxCell>
        <mxCell id="xy5AybyZS4DWEqt7mpqy-30" value="" style="edgeStyle=orthogonalEdgeStyle;rounded=1;orthogonalLoop=1;jettySize=auto;html=1;fontSize=20;elbow=vertical;perimeterSpacing=0;strokeOpacity=100;fillOpacity=100;jumpStyle=none;sketch=0;shadow=0;spacingTop=110;spacingLeft=999;labelPosition=center;verticalLabelPosition=middle;align=center;verticalAlign=middle;textDirection=ltr;fontStyle=4;horizontal=0;exitX=1;exitY=0.5;exitDx=0;exitDy=0;entryX=0;entryY=0.5;entryDx=0;entryDy=0;" parent="1" source="xy5AybyZS4DWEqt7mpqy-9" target="xy5AybyZS4DWEqt7mpqy-11" edge="1">
          <mxGeometry relative="1" as="geometry">
            <mxPoint x="90" y="550" as="targetPoint" />
            <mxPoint x="50" y="600" as="sourcePoint" />
          </mxGeometry>
        </mxCell>
        <mxCell id="xy5AybyZS4DWEqt7mpqy-31" value="" style="edgeStyle=orthogonalEdgeStyle;rounded=1;orthogonalLoop=1;jettySize=auto;html=1;fontSize=20;elbow=vertical;perimeterSpacing=0;strokeOpacity=100;fillOpacity=100;jumpStyle=none;sketch=0;shadow=0;spacingTop=110;spacingLeft=999;labelPosition=center;verticalLabelPosition=middle;align=center;verticalAlign=middle;textDirection=ltr;fontStyle=4;horizontal=0;exitX=1;exitY=0.5;exitDx=0;exitDy=0;entryX=0;entryY=0.5;entryDx=0;entryDy=0;" parent="1" source="xy5AybyZS4DWEqt7mpqy-10" target="xy5AybyZS4DWEqt7mpqy-13" edge="1">
          <mxGeometry relative="1" as="geometry">
            <mxPoint x="110" y="650" as="targetPoint" />
            <mxPoint x="50" y="600" as="sourcePoint" />
          </mxGeometry>
        </mxCell>
        <mxCell id="xy5AybyZS4DWEqt7mpqy-32" value="" style="edgeStyle=orthogonalEdgeStyle;rounded=1;orthogonalLoop=1;jettySize=auto;html=1;fontSize=20;elbow=vertical;perimeterSpacing=0;strokeOpacity=100;fillOpacity=100;jumpStyle=none;sketch=0;shadow=0;spacingTop=110;spacingLeft=999;labelPosition=center;verticalLabelPosition=middle;align=center;verticalAlign=middle;textDirection=ltr;fontStyle=4;horizontal=0;exitX=1;exitY=0.5;exitDx=0;exitDy=0;entryX=0;entryY=0.5;entryDx=0;entryDy=0;" parent="1" source="xy5AybyZS4DWEqt7mpqy-11" target="xy5AybyZS4DWEqt7mpqy-13" edge="1">
          <mxGeometry relative="1" as="geometry">
            <mxPoint x="290" y="600" as="targetPoint" />
            <mxPoint x="240" y="550" as="sourcePoint" />
          </mxGeometry>
        </mxCell>
        <mxCell id="xy5AybyZS4DWEqt7mpqy-33" value="" style="edgeStyle=orthogonalEdgeStyle;rounded=1;orthogonalLoop=1;jettySize=auto;html=1;fontSize=20;elbow=vertical;perimeterSpacing=0;strokeOpacity=100;fillOpacity=100;jumpStyle=none;sketch=0;shadow=0;spacingTop=110;spacingLeft=999;labelPosition=center;verticalLabelPosition=middle;align=center;verticalAlign=middle;textDirection=ltr;fontStyle=4;horizontal=0;exitX=1;exitY=0.5;exitDx=0;exitDy=0;entryX=0;entryY=0.5;entryDx=0;entryDy=0;" parent="1" source="xy5AybyZS4DWEqt7mpqy-15" target="xy5AybyZS4DWEqt7mpqy-16" edge="1">
          <mxGeometry relative="1" as="geometry">
            <mxPoint x="300" y="610" as="targetPoint" />
            <mxPoint x="250" y="560" as="sourcePoint" />
          </mxGeometry>
        </mxCell>
      </root>
    </mxGraphModel>
  </diagram>
</mxfile>
